<mxfile host="65bd71144e" modified="2021-03-04T17:25:26.277Z" agent="5.0 (Macintosh; Intel Mac OS X 11_0_1) AppleWebKit/537.36 (KHTML, like Gecko) Code/1.53.2 Chrome/87.0.4280.141 Electron/11.2.1 Safari/537.36" version="14.2.4" etag="t7JTUL2DWdB0WFhJ0S8i" type="embed">
    <diagram id="nF_TQkjqYYz-xHGZXIH0" name="Page-1">
        <mxGraphModel dx="3555" dy="2690" grid="1" gridSize="10" guides="1" tooltips="1" connect="1" arrows="1" fold="1" page="1" pageScale="1" pageWidth="850" pageHeight="1100" background="#DAD2D8" math="0" shadow="0">
            <root>
                <mxCell id="0"/>
                <mxCell id="1" parent="0"/>
                <mxCell id="2" value="" style="rounded=0;whiteSpace=wrap;html=1;sketch=0;strokeColor=#0F8B8D;fillColor=#FAE5C7;fontColor=#143642;" vertex="1" parent="1">
                    <mxGeometry x="40" y="-120" width="760" height="1200" as="geometry"/>
                </mxCell>
                <mxCell id="3" value="" style="rounded=0;whiteSpace=wrap;html=1;sketch=0;strokeColor=#0F8B8D;fontColor=#143642;fillColor=#FFCCCC;" vertex="1" parent="1">
                    <mxGeometry x="63.75" y="-70" width="702.5" height="150" as="geometry"/>
                </mxCell>
                <mxCell id="4" value="App.jsx" style="text;html=1;strokeColor=none;fillColor=none;align=center;verticalAlign=middle;whiteSpace=wrap;rounded=0;sketch=0;fontColor=#143642;fontStyle=5;fontSize=16;" vertex="1" parent="1">
                    <mxGeometry x="50" y="-100" width="70" height="20" as="geometry"/>
                </mxCell>
                <mxCell id="5" value="" style="rounded=0;whiteSpace=wrap;html=1;sketch=0;strokeColor=#0F8B8D;fontColor=#143642;fillColor=#FFCCCC;" vertex="1" parent="1">
                    <mxGeometry x="65" y="170" width="705" height="660" as="geometry"/>
                </mxCell>
                <mxCell id="6" value="&lt;span style=&quot;font-size: 12px&quot;&gt;Questions List component&lt;/span&gt;" style="text;html=1;strokeColor=none;fillColor=none;align=center;verticalAlign=middle;whiteSpace=wrap;rounded=0;sketch=0;fontSize=16;fontColor=#143642;fontStyle=5" vertex="1" parent="1">
                    <mxGeometry x="70" y="180" width="180" height="20" as="geometry"/>
                </mxCell>
                <mxCell id="7" value="&lt;span style=&quot;font-size: 12px&quot;&gt;Search Questions component&lt;/span&gt;" style="text;html=1;strokeColor=none;fillColor=none;align=center;verticalAlign=middle;whiteSpace=wrap;rounded=0;sketch=0;fontSize=16;fontColor=#143642;fontStyle=5" vertex="1" parent="1">
                    <mxGeometry x="70" y="-60" width="190" height="20" as="geometry"/>
                </mxCell>
                <mxCell id="8" value="" style="rounded=0;whiteSpace=wrap;html=1;sketch=0;strokeColor=#0F8B8D;fontSize=16;fontColor=#143642;fillColor=#FFCC99;" vertex="1" parent="1">
                    <mxGeometry x="80" y="210" width="660" height="350" as="geometry"/>
                </mxCell>
                <mxCell id="9" value="&lt;span style=&quot;font-size: 12px&quot;&gt;Individual Question component (1)&lt;/span&gt;" style="text;html=1;strokeColor=none;fillColor=none;align=center;verticalAlign=middle;whiteSpace=wrap;rounded=0;sketch=0;fontSize=16;fontColor=#143642;fontStyle=5" vertex="1" parent="1">
                    <mxGeometry x="80" y="220" width="235" height="20" as="geometry"/>
                </mxCell>
                <mxCell id="10" value="Q: Example Question" style="rounded=0;whiteSpace=wrap;html=1;sketch=0;strokeColor=#0F8B8D;fontSize=12;fontColor=#143642;align=left;fillColor=#FFB366;" vertex="1" parent="1">
                    <mxGeometry x="100" y="250" width="620" height="50" as="geometry"/>
                </mxCell>
                <mxCell id="11" value="" style="rounded=0;whiteSpace=wrap;html=1;sketch=0;strokeColor=#0F8B8D;fontSize=16;fontColor=#143642;fillColor=#CCFFCC;" vertex="1" parent="1">
                    <mxGeometry x="100" y="310" width="620" height="240" as="geometry"/>
                </mxCell>
                <mxCell id="12" value="&lt;span style=&quot;font-size: 12px&quot;&gt;Answers List component&lt;/span&gt;" style="text;html=1;strokeColor=none;fillColor=none;align=center;verticalAlign=middle;whiteSpace=wrap;rounded=0;sketch=0;fontSize=16;fontColor=#143642;fontStyle=5" vertex="1" parent="1">
                    <mxGeometry x="95" y="320" width="190" height="20" as="geometry"/>
                </mxCell>
                <mxCell id="13" value="" style="rounded=0;whiteSpace=wrap;html=1;sketch=0;strokeColor=#0F8B8D;fontSize=12;fontColor=#143642;align=left;fillColor=#66FFB3;" vertex="1" parent="1">
                    <mxGeometry x="120" y="340" width="570" height="160" as="geometry"/>
                </mxCell>
                <mxCell id="14" value="&lt;u&gt;Helpful?&lt;/u&gt; Yes (#)&amp;nbsp; &amp;nbsp; &lt;u&gt;Report&lt;/u&gt;" style="text;html=1;align=center;verticalAlign=middle;whiteSpace=wrap;rounded=0;sketch=0;fontSize=12;strokeWidth=3;fontColor=#F0F0F0;fillColor=#FF3333;strokeColor=#000000;" vertex="1" parent="1">
                    <mxGeometry x="530" y="380" width="150" height="30" as="geometry"/>
                </mxCell>
                <mxCell id="15" value="&lt;u&gt;See More Answers (3+) (also: Collapse Answers)&lt;/u&gt;" style="rounded=0;whiteSpace=wrap;html=1;sketch=0;strokeColor=#0F8B8D;fontSize=12;fontColor=#143642;align=left;fillColor=#66FFB3;" vertex="1" parent="1">
                    <mxGeometry x="120" y="510" width="570" height="30" as="geometry"/>
                </mxCell>
                <mxCell id="16" value="&lt;span style=&quot;font-family: &amp;#34;helvetica&amp;#34; ; font-size: 12px ; font-style: normal ; font-weight: 400 ; letter-spacing: normal ; text-indent: 0px ; text-transform: none ; word-spacing: 0px ; display: inline ; float: none&quot;&gt;A:&amp;nbsp;&lt;/span&gt;&lt;br style=&quot;font-family: &amp;#34;helvetica&amp;#34; ; font-size: 12px ; font-style: normal ; font-weight: 400 ; letter-spacing: normal ; text-indent: 0px ; text-transform: none ; word-spacing: 0px&quot;&gt;&lt;br style=&quot;font-family: &amp;#34;helvetica&amp;#34; ; font-size: 12px ; font-style: normal ; font-weight: 400 ; letter-spacing: normal ; text-indent: 0px ; text-transform: none ; word-spacing: 0px&quot;&gt;&lt;br style=&quot;font-family: &amp;#34;helvetica&amp;#34; ; font-size: 12px ; font-style: normal ; font-weight: 400 ; letter-spacing: normal ; text-indent: 0px ; text-transform: none ; word-spacing: 0px&quot;&gt;&lt;span style=&quot;font-family: &amp;#34;helvetica&amp;#34; ; font-size: 12px ; font-style: normal ; font-weight: 400 ; letter-spacing: normal ; text-indent: 0px ; text-transform: none ; word-spacing: 0px ; display: inline ; float: none&quot;&gt;Example Answer 1&lt;br&gt;&lt;/span&gt;by &lt;b&gt;seller&lt;/b&gt;, month DD, YYYY&lt;br style=&quot;font-family: &amp;#34;helvetica&amp;#34; ; font-size: 12px ; font-style: normal ; font-weight: 400 ; letter-spacing: normal ; text-indent: 0px ; text-transform: none ; word-spacing: 0px&quot;&gt;&lt;br style=&quot;font-family: &amp;#34;helvetica&amp;#34; ; font-size: 12px ; font-style: normal ; font-weight: 400 ; letter-spacing: normal ; text-indent: 0px ; text-transform: none ; word-spacing: 0px&quot;&gt;&lt;br style=&quot;font-family: &amp;#34;helvetica&amp;#34; ; font-size: 12px ; font-style: normal ; font-weight: 400 ; letter-spacing: normal ; text-indent: 0px ; text-transform: none ; word-spacing: 0px&quot;&gt;&lt;span style=&quot;font-family: &amp;#34;helvetica&amp;#34; ; font-size: 12px ; font-style: normal ; font-weight: 400 ; letter-spacing: normal ; text-indent: 0px ; text-transform: none ; word-spacing: 0px ; display: inline ; float: none&quot;&gt;Example Answer 2&lt;br&gt;&lt;span style=&quot;font-family: &amp;#34;helvetica&amp;#34;&quot;&gt;by username, month DD, YYYY&lt;/span&gt;&lt;br&gt;&lt;/span&gt;" style="text;html=1;strokeColor=none;fillColor=none;align=left;verticalAlign=middle;whiteSpace=wrap;rounded=0;sketch=0;fontSize=12;fontColor=#000000;" vertex="1" parent="1">
                    <mxGeometry x="130" y="355" width="280" height="120" as="geometry"/>
                </mxCell>
                <mxCell id="17" value="&lt;u&gt;Helpful?&lt;/u&gt; Yes (#)" style="text;html=1;align=center;verticalAlign=middle;whiteSpace=wrap;rounded=0;sketch=0;fontSize=12;strokeWidth=3;fontColor=#F0F0F0;fillColor=#FF3333;strokeColor=#000000;" vertex="1" parent="1">
                    <mxGeometry x="470" y="265" width="100" height="20" as="geometry"/>
                </mxCell>
                <mxCell id="18" value="&lt;u&gt;Helpful?&lt;/u&gt; Yes (#)&amp;nbsp; &amp;nbsp; &lt;u&gt;Report&lt;/u&gt;" style="text;html=1;align=center;verticalAlign=middle;whiteSpace=wrap;rounded=0;sketch=0;fontSize=12;strokeWidth=3;fontColor=#F0F0F0;fillColor=#FF3333;strokeColor=#000000;" vertex="1" parent="1">
                    <mxGeometry x="530" y="445" width="150" height="30" as="geometry"/>
                </mxCell>
                <mxCell id="19" value="" style="rounded=0;whiteSpace=wrap;html=1;sketch=0;strokeColor=#0F8B8D;fontSize=12;fontColor=#143642;fillColor=#FF9999;align=left;" vertex="1" parent="1">
                    <mxGeometry x="85" y="10" width="660" height="50" as="geometry"/>
                </mxCell>
                <mxCell id="20" value="" style="rounded=0;whiteSpace=wrap;html=1;sketch=0;strokeColor=#0F8B8D;fontColor=#143642;fillColor=#FFCCCC;" vertex="1" parent="1">
                    <mxGeometry x="65" y="850" width="705" height="140" as="geometry"/>
                </mxCell>
                <mxCell id="21" value="More Answered Questions (5+)" style="text;html=1;strokeColor=none;fillColor=none;align=left;verticalAlign=middle;whiteSpace=wrap;rounded=0;sketch=0;fontSize=12;fontColor=#000000;fontStyle=4" vertex="1" parent="1">
                    <mxGeometry x="75" y="860" width="205" height="20" as="geometry"/>
                </mxCell>
                <mxCell id="22" value="" style="rounded=0;whiteSpace=wrap;html=1;sketch=0;strokeColor=#0F8B8D;fontSize=16;fontColor=#143642;fillColor=#FFCC99;" vertex="1" parent="1">
                    <mxGeometry x="80" y="570" width="660" height="70" as="geometry"/>
                </mxCell>
                <mxCell id="23" value="&lt;span style=&quot;font-size: 12px&quot;&gt;Individual Question component (2)&lt;/span&gt;" style="text;html=1;strokeColor=none;fillColor=none;align=center;verticalAlign=middle;whiteSpace=wrap;rounded=0;sketch=0;fontSize=16;fontColor=#143642;fontStyle=5" vertex="1" parent="1">
                    <mxGeometry x="85" y="580" width="215" height="20" as="geometry"/>
                </mxCell>
                <mxCell id="24" style="edgeStyle=orthogonalEdgeStyle;curved=0;rounded=1;sketch=0;orthogonalLoop=1;jettySize=auto;html=1;exitX=0.5;exitY=1;exitDx=0;exitDy=0;strokeColor=#A8201A;fillColor=#FAE5C7;fontSize=12;fontColor=#000000;" edge="1" parent="1" source="22" target="22">
                    <mxGeometry relative="1" as="geometry"/>
                </mxCell>
                <mxCell id="25" value="See Example above" style="text;html=1;strokeColor=none;fillColor=none;align=center;verticalAlign=middle;whiteSpace=wrap;rounded=0;sketch=0;fontSize=12;fontColor=#000000;" vertex="1" parent="1">
                    <mxGeometry x="90" y="610" width="120" height="20" as="geometry"/>
                </mxCell>
                <mxCell id="26" value="" style="rounded=0;whiteSpace=wrap;html=1;sketch=0;strokeColor=#0F8B8D;fontSize=16;fontColor=#143642;fillColor=#FFCC99;" vertex="1" parent="1">
                    <mxGeometry x="80" y="650" width="660" height="70" as="geometry"/>
                </mxCell>
                <mxCell id="27" value="&lt;span style=&quot;font-size: 12px&quot;&gt;Individual Question component (3)&lt;/span&gt;" style="text;html=1;strokeColor=none;fillColor=none;align=center;verticalAlign=middle;whiteSpace=wrap;rounded=0;sketch=0;fontSize=16;fontColor=#143642;fontStyle=5" vertex="1" parent="1">
                    <mxGeometry x="85" y="660" width="225" height="20" as="geometry"/>
                </mxCell>
                <mxCell id="28" value="See Example above" style="text;html=1;strokeColor=none;fillColor=none;align=center;verticalAlign=middle;whiteSpace=wrap;rounded=0;sketch=0;fontSize=12;fontColor=#000000;" vertex="1" parent="1">
                    <mxGeometry x="90" y="690" width="120" height="20" as="geometry"/>
                </mxCell>
                <mxCell id="29" value="" style="rounded=0;whiteSpace=wrap;html=1;sketch=0;strokeColor=#0F8B8D;fontSize=16;fontColor=#143642;fillColor=#FFCC99;" vertex="1" parent="1">
                    <mxGeometry x="80" y="740" width="660" height="70" as="geometry"/>
                </mxCell>
                <mxCell id="30" value="&lt;span style=&quot;font-size: 12px&quot;&gt;Individual Question component (4)&lt;/span&gt;" style="text;html=1;strokeColor=none;fillColor=none;align=center;verticalAlign=middle;whiteSpace=wrap;rounded=0;sketch=0;fontSize=16;fontColor=#143642;fontStyle=5" vertex="1" parent="1">
                    <mxGeometry x="85" y="750" width="225" height="20" as="geometry"/>
                </mxCell>
                <mxCell id="31" value="See Example above" style="text;html=1;strokeColor=none;fillColor=none;align=center;verticalAlign=middle;whiteSpace=wrap;rounded=0;sketch=0;fontSize=12;fontColor=#000000;" vertex="1" parent="1">
                    <mxGeometry x="90" y="780" width="120" height="20" as="geometry"/>
                </mxCell>
                <mxCell id="32" value="" style="shape=curlyBracket;whiteSpace=wrap;html=1;rounded=1;sketch=0;strokeColor=#000000;strokeWidth=3;fillColor=#FF9999;fontSize=12;fontColor=#000000;align=left;size=0.4444444444444444;" vertex="1" parent="1">
                    <mxGeometry x="-10" y="170" width="80" height="660" as="geometry"/>
                </mxCell>
                <mxCell id="33" value="Scrollable List (capped height)&lt;br&gt;Listed in order of helpfulness" style="text;html=1;strokeColor=none;fillColor=none;align=right;verticalAlign=middle;whiteSpace=wrap;rounded=0;sketch=0;fontSize=21;fontColor=#000000;rotation=0;" vertex="1" parent="1">
                    <mxGeometry x="-410" y="453.75" width="395" height="92.5" as="geometry"/>
                </mxCell>
                <mxCell id="34" value="&lt;ul&gt;&lt;li&gt;Disappears if there are 2 or less questions&lt;/li&gt;&lt;li&gt;Disappears if all questions have been loaded&lt;/li&gt;&lt;li&gt;Disappears if there are no questions&lt;/li&gt;&lt;li&gt;Clicking loads 2 additional questions&lt;/li&gt;&lt;li&gt;Adds questions to the bottom of the list (after previously loaded questions)&lt;/li&gt;&lt;/ul&gt;" style="text;html=1;strokeColor=none;fillColor=none;align=left;verticalAlign=middle;whiteSpace=wrap;rounded=0;sketch=0;fontSize=12;fontColor=#000000;" vertex="1" parent="1">
                    <mxGeometry x="65" y="880" width="510" height="95" as="geometry"/>
                </mxCell>
                <mxCell id="35" value="" style="rounded=0;whiteSpace=wrap;html=1;sketch=0;strokeColor=#0F8B8D;fontColor=#143642;fillColor=#FFCCCC;" vertex="1" parent="1">
                    <mxGeometry x="65" y="90" width="700" height="65" as="geometry"/>
                </mxCell>
                <mxCell id="36" value="Submit a New Question" style="text;html=1;strokeColor=none;fillColor=none;align=left;verticalAlign=middle;whiteSpace=wrap;rounded=0;sketch=0;fontSize=12;fontColor=#000000;fontStyle=4" vertex="1" parent="1">
                    <mxGeometry x="75" y="100" width="205" height="20" as="geometry"/>
                </mxCell>
                <mxCell id="37" style="edgeStyle=orthogonalEdgeStyle;curved=0;rounded=1;sketch=0;orthogonalLoop=1;jettySize=auto;html=1;exitX=0;exitY=0.5;exitDx=0;exitDy=0;entryX=0.436;entryY=1.002;entryDx=0;entryDy=0;entryPerimeter=0;strokeColor=#A8201A;fillColor=#FAE5C7;fontSize=12;fontColor=#000000;strokeWidth=3;" edge="1" parent="1" source="38" target="50">
                    <mxGeometry relative="1" as="geometry"/>
                </mxCell>
                <mxCell id="38" value="" style="rounded=0;whiteSpace=wrap;html=1;sketch=0;strokeColor=#0F8B8D;fontColor=#143642;fillColor=#FFCCCC;" vertex="1" parent="1">
                    <mxGeometry x="65" y="1000" width="700" height="60" as="geometry"/>
                </mxCell>
                <mxCell id="39" value="Ask a Question" style="text;html=1;strokeColor=none;fillColor=none;align=left;verticalAlign=middle;whiteSpace=wrap;rounded=0;sketch=0;fontSize=12;fontColor=#000000;fontStyle=4" vertex="1" parent="1">
                    <mxGeometry x="80" y="1015" width="205" height="20" as="geometry"/>
                </mxCell>
                <mxCell id="40" value="&lt;ul&gt;&lt;li&gt;&lt;span style=&quot;color: rgb(20 , 54 , 66)&quot;&gt;Filters Questions List based on user search&lt;/span&gt;&lt;/li&gt;&lt;li&gt;&lt;font color=&quot;#143642&quot;&gt;searches based on the first 3 or more characters&lt;/font&gt;&lt;/li&gt;&lt;/ul&gt;" style="text;html=1;strokeColor=none;fillColor=none;align=left;verticalAlign=middle;whiteSpace=wrap;rounded=0;sketch=0;fontSize=12;fontColor=#000000;" vertex="1" parent="1">
                    <mxGeometry x="85" y="12.5" width="377.5" height="45" as="geometry"/>
                </mxCell>
                <mxCell id="41" style="edgeStyle=orthogonalEdgeStyle;rounded=0;sketch=0;orthogonalLoop=1;jettySize=auto;html=1;exitX=0;exitY=0;exitDx=0;exitDy=0;strokeColor=#A8201A;fillColor=#FAE5C7;fontSize=12;fontColor=#000000;strokeWidth=3;" edge="1" parent="1" source="42" target="50">
                    <mxGeometry relative="1" as="geometry">
                        <Array as="points">
                            <mxPoint x="-20" y="115"/>
                            <mxPoint x="-20" y="115"/>
                        </Array>
                    </mxGeometry>
                </mxCell>
                <mxCell id="42" value="&lt;ul&gt;&lt;li&gt;Only shows up if no questions have been submitted&lt;/li&gt;&lt;/ul&gt;" style="text;html=1;strokeColor=none;fillColor=none;align=left;verticalAlign=middle;whiteSpace=wrap;rounded=0;sketch=0;fontSize=12;fontColor=#000000;" vertex="1" parent="1">
                    <mxGeometry x="65" y="115" width="510" height="40" as="geometry"/>
                </mxCell>
                <mxCell id="43" style="edgeStyle=orthogonalEdgeStyle;rounded=0;sketch=0;orthogonalLoop=1;jettySize=auto;html=1;exitX=1;exitY=0.5;exitDx=0;exitDy=0;strokeColor=#A8201A;strokeWidth=3;fillColor=#FAE5C7;fontSize=16;fontColor=#000000;" edge="1" parent="1" source="44" target="52">
                    <mxGeometry relative="1" as="geometry">
                        <Array as="points">
                            <mxPoint x="840" y="275"/>
                            <mxPoint x="840" y="-40"/>
                        </Array>
                    </mxGeometry>
                </mxCell>
                <mxCell id="44" value="" style="rounded=0;whiteSpace=wrap;html=1;sketch=0;strokeColor=#0F8B8D;fontSize=12;fontColor=#143642;align=left;fillColor=#FF8000;" vertex="1" parent="1">
                    <mxGeometry x="590" y="260" width="120" height="30" as="geometry"/>
                </mxCell>
                <mxCell id="45" value="Add An Answer" style="text;html=1;strokeColor=none;fillColor=none;align=left;verticalAlign=middle;whiteSpace=wrap;rounded=0;sketch=0;fontSize=12;fontColor=#000000;fontStyle=4" vertex="1" parent="1">
                    <mxGeometry x="595" y="265" width="95" height="20" as="geometry"/>
                </mxCell>
                <mxCell id="46" value="" style="shape=curlyBracket;whiteSpace=wrap;html=1;rounded=1;sketch=0;strokeColor=#000000;strokeWidth=3;fillColor=#FF8000;fontSize=12;fontColor=#000000;align=left;rotation=-180;" vertex="1" parent="1">
                    <mxGeometry x="730" y="310" width="80" height="240" as="geometry"/>
                </mxCell>
                <mxCell id="47" value="Scrollable List (capped height: half the screen)&lt;br&gt;Listed in order of helpfulness" style="text;html=1;strokeColor=none;fillColor=none;align=left;verticalAlign=middle;whiteSpace=wrap;rounded=0;sketch=0;fontSize=21;fontColor=#000000;rotation=0;" vertex="1" parent="1">
                    <mxGeometry x="810" y="383.75" width="460" height="92.5" as="geometry"/>
                </mxCell>
                <mxCell id="48" value="" style="rounded=0;whiteSpace=wrap;html=1;sketch=0;strokeColor=#0F8B8D;fontSize=12;fontColor=#143642;fillColor=#FF9999;align=left;" vertex="1" parent="1">
                    <mxGeometry x="85" y="-30" width="660" height="30" as="geometry"/>
                </mxCell>
                <mxCell id="49" value="&lt;div&gt;&lt;/div&gt;&lt;span style=&quot;color: rgb(20 , 54 , 66)&quot;&gt;Placeholder text:&amp;nbsp; &quot;&lt;/span&gt;&lt;font color=&quot;#143642&quot;&gt;Have a question? Search for answers…”&lt;/font&gt;" style="text;html=1;strokeColor=none;fillColor=none;align=left;verticalAlign=middle;whiteSpace=wrap;rounded=0;sketch=0;fontSize=12;fontColor=#000000;" vertex="1" parent="1">
                    <mxGeometry x="96.25" y="-30" width="510" height="30" as="geometry"/>
                </mxCell>
                <mxCell id="50" value="" style="rounded=0;whiteSpace=wrap;html=1;sketch=0;strokeColor=#000000;strokeWidth=3;fontSize=12;fontColor=#000000;align=left;fillColor=#CCE5FF;" vertex="1" parent="1">
                    <mxGeometry x="-820" y="-360" width="680" height="760" as="geometry"/>
                </mxCell>
                <mxCell id="51" value="&lt;i style=&quot;font-weight: normal&quot;&gt;Modal Window: Add a Question&lt;/i&gt;" style="text;html=1;strokeColor=none;fillColor=none;align=right;verticalAlign=middle;whiteSpace=wrap;rounded=0;sketch=0;fontSize=16;fontColor=#000000;fontStyle=5" vertex="1" parent="1">
                    <mxGeometry x="-445" y="-345" width="290" height="30" as="geometry"/>
                </mxCell>
                <mxCell id="52" value="" style="rounded=0;whiteSpace=wrap;html=1;sketch=0;strokeColor=#000000;strokeWidth=3;fontSize=12;fontColor=#000000;align=left;fillColor=#CCE5FF;" vertex="1" parent="1">
                    <mxGeometry x="890" y="-595" width="680" height="955" as="geometry"/>
                </mxCell>
                <mxCell id="53" value="Modal Window: Add an Answer" style="text;html=1;strokeColor=none;fillColor=none;align=right;verticalAlign=middle;whiteSpace=wrap;rounded=0;sketch=0;fontSize=16;fontColor=#000000;fontStyle=6" vertex="1" parent="1">
                    <mxGeometry x="1270" y="-575" width="290" height="30" as="geometry"/>
                </mxCell>
                <mxCell id="54" value="&lt;font color=&quot;#000000&quot;&gt;Question Form component&lt;/font&gt;" style="text;html=1;strokeColor=none;fillColor=none;align=center;verticalAlign=middle;whiteSpace=wrap;rounded=0;sketch=0;fontColor=#143642;fontStyle=5;fontSize=16;" vertex="1" parent="1">
                    <mxGeometry x="-810" y="-340" width="240" height="20" as="geometry"/>
                </mxCell>
                <mxCell id="55" value="&lt;font color=&quot;#000000&quot;&gt;Answer Form component&lt;/font&gt;" style="text;html=1;strokeColor=none;fillColor=none;align=center;verticalAlign=middle;whiteSpace=wrap;rounded=0;sketch=0;fontColor=#143642;fontStyle=5;fontSize=16;" vertex="1" parent="1">
                    <mxGeometry x="890" y="-575" width="240" height="20" as="geometry"/>
                </mxCell>
                <mxCell id="56" value="Title: Ask Your Question&lt;br&gt;&lt;div&gt;&lt;span&gt;Subtitle: About the [Product Name Here]&lt;/span&gt;&lt;/div&gt;" style="text;html=1;align=left;verticalAlign=middle;whiteSpace=wrap;rounded=0;sketch=0;fontSize=16;fontColor=#000000;strokeColor=#000000;fillColor=#99CCFF;" vertex="1" parent="1">
                    <mxGeometry x="-800" y="-300" width="630" height="85" as="geometry"/>
                </mxCell>
                <mxCell id="57" value="Your Question*&lt;br&gt;&lt;ul&gt;&lt;li&gt;text window allowing up to 1000 characters&lt;br&gt;&lt;/li&gt;&lt;/ul&gt;" style="text;html=1;align=left;verticalAlign=middle;whiteSpace=wrap;rounded=0;sketch=0;fontSize=16;fontColor=#000000;strokeColor=#000000;fillColor=#99CCFF;" vertex="1" parent="1">
                    <mxGeometry x="-800" y="-192.5" width="630" height="95" as="geometry"/>
                </mxCell>
                <mxCell id="58" value="What is your nickname*&lt;br&gt;&lt;ul&gt;&lt;li&gt;text window allowing up to 60 characters&lt;br&gt;&lt;/li&gt;&lt;li&gt;Placeholder text:&amp;nbsp;“Example: jackson11!”&lt;/li&gt;&lt;li&gt;text below placeholder:&amp;nbsp;“For privacy reasons, do not use your full name or email address”&amp;nbsp;&lt;/li&gt;&lt;/ul&gt;" style="text;html=1;align=left;verticalAlign=middle;whiteSpace=wrap;rounded=0;sketch=0;fontSize=16;fontColor=#000000;strokeColor=#000000;fillColor=#99CCFF;" vertex="1" parent="1">
                    <mxGeometry x="-800" y="-75" width="630" height="160" as="geometry"/>
                </mxCell>
                <mxCell id="59" value="Your email*&lt;br&gt;&lt;ul&gt;&lt;li&gt;text window allowing up to 60 characters&lt;br&gt;&lt;/li&gt;&lt;li&gt;Placeholder text:&amp;nbsp;“Why did you like the product or not?&quot;&amp;nbsp; (to be confirmed)&lt;/li&gt;&lt;li&gt;text below placeholder:&amp;nbsp;“For authentication reasons, you will not be emailed”&amp;nbsp;&lt;/li&gt;&lt;/ul&gt;" style="text;html=1;align=left;verticalAlign=middle;whiteSpace=wrap;rounded=0;sketch=0;fontSize=16;fontColor=#000000;strokeColor=#000000;fillColor=#99CCFF;" vertex="1" parent="1">
                    <mxGeometry x="-800" y="100" width="630" height="140" as="geometry"/>
                </mxCell>
                <mxCell id="60" value="&lt;u&gt;Submit Question&lt;/u&gt;&lt;br&gt;&lt;ul&gt;&lt;li&gt;prevents form submission if invalid entries: blank mandatory fields, email address not in correct format&lt;/li&gt;&lt;/ul&gt;" style="text;html=1;align=left;verticalAlign=middle;whiteSpace=wrap;rounded=0;sketch=0;fontSize=16;fontColor=#000000;strokeColor=#000000;fillColor=#99CCFF;" vertex="1" parent="1">
                    <mxGeometry x="-800" y="260" width="630" height="120" as="geometry"/>
                </mxCell>
                <mxCell id="61" value="Title: Submit Your Answer&lt;br&gt;&lt;div&gt;&lt;span&gt;Subtitle: [Product Name]: [Question Body]&lt;/span&gt;&lt;/div&gt;" style="text;html=1;align=left;verticalAlign=middle;whiteSpace=wrap;rounded=0;sketch=0;fontSize=16;fontColor=#000000;strokeColor=#000000;fillColor=#99CCFF;" vertex="1" parent="1">
                    <mxGeometry x="915" y="-520" width="630" height="85" as="geometry"/>
                </mxCell>
                <mxCell id="62" value="Your Answer*&lt;br&gt;&lt;ul&gt;&lt;li&gt;text window allowing up to 1000 characters&lt;br&gt;&lt;/li&gt;&lt;/ul&gt;" style="text;html=1;align=left;verticalAlign=middle;whiteSpace=wrap;rounded=0;sketch=0;fontSize=16;fontColor=#000000;strokeColor=#000000;fillColor=#99CCFF;" vertex="1" parent="1">
                    <mxGeometry x="915" y="-412.5" width="630" height="95" as="geometry"/>
                </mxCell>
                <mxCell id="63" value="What is your nickname*&lt;br&gt;&lt;ul&gt;&lt;li&gt;text window allowing up to 60 characters&lt;br&gt;&lt;/li&gt;&lt;li&gt;Placeholder text:&amp;nbsp;“Example: jack543!”&lt;/li&gt;&lt;li&gt;text below placeholder:&amp;nbsp;“For privacy reasons, do not use your full name or email address”&amp;nbsp;&lt;/li&gt;&lt;/ul&gt;" style="text;html=1;align=left;verticalAlign=middle;whiteSpace=wrap;rounded=0;sketch=0;fontSize=16;fontColor=#000000;strokeColor=#000000;fillColor=#99CCFF;" vertex="1" parent="1">
                    <mxGeometry x="915" y="-295" width="630" height="160" as="geometry"/>
                </mxCell>
                <mxCell id="64" value="Your email*&lt;br&gt;&lt;ul&gt;&lt;li&gt;text window allowing up to 60 characters&lt;br&gt;&lt;/li&gt;&lt;li&gt;Placeholder text:&amp;nbsp;&quot;Example: jack@email.com&quot;&lt;/li&gt;&lt;li&gt;text below placeholder:&amp;nbsp;“For authentication reasons, you will not be emailed”&amp;nbsp;&lt;/li&gt;&lt;/ul&gt;" style="text;html=1;align=left;verticalAlign=middle;whiteSpace=wrap;rounded=0;sketch=0;fontSize=16;fontColor=#000000;strokeColor=#000000;fillColor=#99CCFF;" vertex="1" parent="1">
                    <mxGeometry x="915" y="-120" width="630" height="140" as="geometry"/>
                </mxCell>
                <mxCell id="65" value="&lt;u&gt;Submit Answer&lt;/u&gt;&lt;br&gt;&lt;ul&gt;&lt;li&gt;prevents form submission if invalid entries: blank mandatory fields, email address not in correct format, images cannot be uploaded/are invalid format&lt;/li&gt;&lt;/ul&gt;" style="text;html=1;align=left;verticalAlign=middle;whiteSpace=wrap;rounded=0;sketch=0;fontSize=16;fontColor=#000000;strokeColor=#000000;fillColor=#99CCFF;" vertex="1" parent="1">
                    <mxGeometry x="915" y="215" width="630" height="120" as="geometry"/>
                </mxCell>
                <mxCell id="66" style="edgeStyle=orthogonalEdgeStyle;rounded=0;sketch=0;orthogonalLoop=1;jettySize=auto;html=1;exitX=1;exitY=0.5;exitDx=0;exitDy=0;strokeColor=#A8201A;strokeWidth=3;fillColor=#FAE5C7;fontSize=16;fontColor=#000000;entryX=1.002;entryY=0.582;entryDx=0;entryDy=0;entryPerimeter=0;" edge="1" parent="1" source="67" target="68">
                    <mxGeometry relative="1" as="geometry">
                        <mxPoint x="1670" y="840" as="targetPoint"/>
                        <Array as="points">
                            <mxPoint x="1545" y="70"/>
                            <mxPoint x="1660" y="70"/>
                            <mxPoint x="1660" y="599"/>
                        </Array>
                    </mxGeometry>
                </mxCell>
                <mxCell id="67" value="&lt;u&gt;Upload Your Photos&lt;/u&gt;&lt;br&gt;&lt;ul&gt;&lt;li&gt;only allows a total of 5 images to be uploaded&lt;/li&gt;&lt;li&gt;shows tumbnail of most recently uploaded image&lt;/li&gt;&lt;li&gt;Disappears after 5 images have been uploaded&lt;/li&gt;&lt;/ul&gt;" style="text;html=1;align=left;verticalAlign=middle;whiteSpace=wrap;rounded=0;sketch=0;fontSize=16;fontColor=#000000;strokeColor=#000000;fillColor=#99CCFF;" vertex="1" parent="1">
                    <mxGeometry x="915" y="30" width="630" height="160" as="geometry"/>
                </mxCell>
                <mxCell id="68" value="" style="rounded=0;whiteSpace=wrap;html=1;sketch=0;strokeColor=#000000;strokeWidth=3;fontSize=12;fontColor=#000000;align=left;fillColor=#CCE5FF;" vertex="1" parent="1">
                    <mxGeometry x="900" y="500" width="680" height="170" as="geometry"/>
                </mxCell>
                <mxCell id="69" value="Modal Window: Upload Your Photos" style="text;html=1;strokeColor=none;fillColor=none;align=right;verticalAlign=middle;whiteSpace=wrap;rounded=0;sketch=0;fontSize=16;fontColor=#000000;fontStyle=6" vertex="1" parent="1">
                    <mxGeometry x="1270" y="516.25" width="290" height="30" as="geometry"/>
                </mxCell>
                <mxCell id="70" value="&lt;u&gt;Upload&lt;/u&gt;" style="text;html=1;strokeColor=none;align=center;verticalAlign=middle;whiteSpace=wrap;rounded=0;sketch=0;fontSize=16;fontColor=#000000;fillColor=#99CCFF;" vertex="1" parent="1">
                    <mxGeometry x="1280" y="630" width="130" height="30" as="geometry"/>
                </mxCell>
                <mxCell id="71" value="File System of User's documents" style="text;html=1;strokeColor=none;align=center;verticalAlign=middle;whiteSpace=wrap;rounded=0;sketch=0;fontSize=16;fontColor=#000000;fillColor=#99CCFF;" vertex="1" parent="1">
                    <mxGeometry x="930" y="531.25" width="310" height="118.75" as="geometry"/>
                </mxCell>
                <mxCell id="72" value="&lt;u&gt;Cancel&lt;/u&gt;" style="text;html=1;strokeColor=none;align=center;verticalAlign=middle;whiteSpace=wrap;rounded=0;sketch=0;fontSize=16;fontColor=#000000;fillColor=#99CCFF;" vertex="1" parent="1">
                    <mxGeometry x="1430" y="630" width="130" height="30" as="geometry"/>
                </mxCell>
                <mxCell id="73" value="" style="ellipse;whiteSpace=wrap;html=1;aspect=fixed;rounded=0;sketch=0;strokeColor=#000000;strokeWidth=1;fontSize=16;fontColor=#000000;align=right;fillColor=#999999;" vertex="1" parent="1">
                    <mxGeometry x="1400" y="40" width="130" height="130" as="geometry"/>
                </mxCell>
                <mxCell id="74" value="Image Thumbnail" style="text;html=1;strokeColor=none;fillColor=none;align=center;verticalAlign=middle;whiteSpace=wrap;rounded=0;sketch=0;fontSize=16;fontColor=#000000;" vertex="1" parent="1">
                    <mxGeometry x="1445" y="90" width="40" height="20" as="geometry"/>
                </mxCell>
            </root>
        </mxGraphModel>
    </diagram>
</mxfile>